<?xml version="1.0" encoding="utf-8"?>
<!-- Generator: Adobe Illustrator 21.1.0, SVG Export Plug-In . SVG Version: 6.00 Build 0)  -->
<svg version="1.1" id="Layer_1" xmlns="http://www.w3.org/2000/svg" xmlns:xlink="http://www.w3.org/1999/xlink" x="0px" y="0px"
	 viewBox="0 0 100 100" style="enable-background:new 0 0 100 100;" xml:space="preserve">
<g>
	<path d="M93.4,23.2c-3.2,1.4-5.9,1.5-8.8,0.1c3.7-2.2,3.9-3.8,5.2-8c-3.5,2.1-7.3,3.5-11.4,4.4c-3.3-3.5-7.9-5.7-13.1-5.7
		c-9.9,0-17.9,8-17.9,17.9c0,1.4,0.2,2.8,0.5,4.1c-14.9-0.7-28.1-7.9-36.9-18.7c-1.5,2.6-2.4,5.7-2.4,9c0,6.2,3.2,11.7,8,14.9
		c-2.9-0.1-5.7-0.9-8.1-2.2c0,0.1,0,0.1,0,0.2c0,8.7,6.2,15.9,14.4,17.6c-2.6,0.7-5.4,0.8-8.1,0.3c2.3,7.1,8.9,12.3,16.7,12.4
		c-7.7,6-17.2,8.5-26.5,7.4c7.9,5.1,17.3,8,27.4,8C65.4,85,83.4,57.7,83.4,34c0-0.8,0-1.5,0-2.3C86.8,29.2,91,26.8,93.4,23.2z"/>
</g>
</svg>
